# This file uses centimeters as units for non-parametric coordinates.

mtllib piano.mtl
g default
v 0.002500 -0.041667 -0.179167
v 0.052500 -0.041667 -0.179167
v 0.052500 0.008333 -0.179167
v 0.002500 0.008333 -0.179167
v 0.002500 -0.041667 0.140833
v 0.002500 0.008333 0.140833
v 0.052500 0.008333 0.140833
v 0.052500 -0.041667 0.140833
vn 0.000001 0.000002 -1.000000
vn 0.000001 0.000002 -1.000000
vn 0.000001 0.000002 -1.000000
vn 0.000001 0.000002 -1.000000
vn -0.000001 -0.000002 1.000000
vn -0.000001 -0.000002 1.000000
vn -0.000001 -0.000002 1.000000
vn -0.000001 -0.000002 1.000000
vn -0.000000 -1.000000 -0.000002
vn -0.000000 -1.000000 -0.000002
vn -0.000000 -1.000000 -0.000002
vn -0.000000 -1.000000 -0.000002
vn 0.000000 1.000000 0.000002
vn 0.000000 1.000000 0.000002
vn 0.000000 1.000000 0.000002
vn 0.000000 1.000000 0.000002
vn -1.000000 0.000000 -0.000001
vn -1.000000 0.000000 -0.000001
vn -1.000000 0.000000 -0.000001
vn -1.000000 0.000000 -0.000001
vn 1.000000 -0.000000 0.000001
vn 1.000000 -0.000000 0.000001
vn 1.000000 -0.000000 0.000001
vn 1.000000 -0.000000 0.000001
s off
g polySurface1 Mesh
usemtl mat21
f 4//1 3//2 2//3 1//4
f 8//5 7//6 6//7 5//8
f 2//9 8//10 5//11 1//12
f 6//13 7//14 3//15 4//16
f 5//17 6//18 4//19 1//20
f 3//21 7//22 8//23 2//24
g default
v 0.062500 -0.041667 -0.179167
v 0.112500 -0.041667 -0.179167
v 0.112500 0.008333 -0.179167
v 0.062500 0.008333 -0.179167
v 0.062500 -0.041667 0.140833
v 0.062500 0.008333 0.140833
v 0.112500 0.008333 0.140833
v 0.112500 -0.041667 0.140833
vn 0.000001 0.000001 -1.000000
vn 0.000001 0.000001 -1.000000
vn 0.000001 0.000001 -1.000000
vn 0.000001 0.000001 -1.000000
vn -0.000001 -0.000001 1.000000
vn -0.000001 -0.000001 1.000000
vn -0.000001 -0.000001 1.000000
vn -0.000001 -0.000001 1.000000
vn -0.000000 -1.000000 -0.000001
vn -0.000000 -1.000000 -0.000001
vn -0.000000 -1.000000 -0.000001
vn -0.000000 -1.000000 -0.000001
vn 0.000000 1.000000 0.000001
vn 0.000000 1.000000 0.000001
vn 0.000000 1.000000 0.000001
vn 0.000000 1.000000 0.000001
vn -1.000000 0.000000 -0.000001
vn -1.000000 0.000000 -0.000001
vn -1.000000 0.000000 -0.000001
vn -1.000000 0.000000 -0.000001
vn 1.000000 -0.000000 0.000001
vn 1.000000 -0.000000 0.000001
vn 1.000000 -0.000000 0.000001
vn 1.000000 -0.000000 0.000001
s off
g Mesh polySurface9
usemtl mat21
f 12//25 11//26 10//27 9//28
f 16//29 15//30 14//31 13//32
f 10//33 16//34 13//35 9//36
f 14//37 15//38 11//39 12//40
f 13//41 14//42 12//43 9//44
f 11//45 15//46 16//47 10//48
g default
v 0.122500 -0.041667 -0.179167
v 0.172500 -0.041667 -0.179167
v 0.172500 0.008333 -0.179167
v 0.122500 0.008333 -0.179167
v 0.122500 -0.041667 0.140833
v 0.122500 0.008333 0.140833
v 0.172500 0.008333 0.140833
v 0.172500 -0.041667 0.140833
vn 0.000001 0.000001 -1.000000
vn 0.000001 0.000001 -1.000000
vn 0.000001 0.000001 -1.000000
vn 0.000001 0.000001 -1.000000
vn -0.000001 -0.000001 1.000000
vn -0.000001 -0.000001 1.000000
vn -0.000001 -0.000001 1.000000
vn -0.000001 -0.000001 1.000000
vn -0.000000 -1.000000 -0.000001
vn -0.000000 -1.000000 -0.000001
vn -0.000000 -1.000000 -0.000001
vn -0.000000 -1.000000 -0.000001
vn 0.000000 1.000000 0.000001
vn 0.000000 1.000000 0.000001
vn 0.000000 1.000000 0.000001
vn 0.000000 1.000000 0.000001
vn -1.000000 0.000000 -0.000001
vn -1.000000 0.000000 -0.000001
vn -1.000000 0.000000 -0.000001
vn -1.000000 0.000000 -0.000001
vn 1.000000 -0.000000 0.000001
vn 1.000000 -0.000000 0.000001
vn 1.000000 -0.000000 0.000001
vn 1.000000 -0.000000 0.000001
s off
g Mesh polySurface10
usemtl mat21
f 20//49 19//50 18//51 17//52
f 24//53 23//54 22//55 21//56
f 18//57 24//58 21//59 17//60
f 22//61 23//62 19//63 20//64
f 21//65 22//66 20//67 17//68
f 19//69 23//70 24//71 18//72
g default
v -0.057500 -0.041667 -0.179166
v -0.007500 -0.041667 -0.179166
v -0.007500 0.008333 -0.179166
v -0.057500 0.008333 -0.179166
v -0.057500 -0.041667 0.140834
v -0.057500 0.008333 0.140834
v -0.007500 0.008333 0.140834
v -0.007500 -0.041667 0.140834
vn 0.000000 0.000000 -1.000000
vn 0.000000 0.000000 -1.000000
vn 0.000000 0.000000 -1.000000
vn 0.000000 0.000000 -1.000000
vn -0.000000 -0.000000 1.000000
vn -0.000000 -0.000000 1.000000
vn -0.000000 -0.000000 1.000000
vn -0.000000 -0.000000 1.000000
vn -0.000000 -1.000000 -0.000000
vn -0.000000 -1.000000 -0.000000
vn -0.000000 -1.000000 -0.000000
vn -0.000000 -1.000000 -0.000000
vn 0.000000 1.000000 0.000000
vn 0.000000 1.000000 0.000000
vn 0.000000 1.000000 0.000000
vn 0.000000 1.000000 0.000000
vn -1.000000 0.000000 -0.000000
vn -1.000000 0.000000 -0.000000
vn -1.000000 0.000000 -0.000000
vn -1.000000 0.000000 -0.000000
vn 1.000000 -0.000000 0.000000
vn 1.000000 -0.000000 0.000000
vn 1.000000 -0.000000 0.000000
vn 1.000000 -0.000000 0.000000
s off
g Mesh polySurface15
usemtl mat21
f 28//73 27//74 26//75 25//76
f 32//77 31//78 30//79 29//80
f 26//81 32//82 29//83 25//84
f 30//85 31//86 27//87 28//88
f 29//89 30//90 28//91 25//92
f 27//93 31//94 32//95 26//96
g default
v -0.117500 -0.041667 -0.179166
v -0.067500 -0.041667 -0.179166
v -0.067500 0.008333 -0.179166
v -0.117500 0.008333 -0.179166
v -0.117500 -0.041667 0.140834
v -0.117500 0.008333 0.140834
v -0.067500 0.008333 0.140834
v -0.067500 -0.041667 0.140834
vn 0.000000 0.000001 -1.000000
vn 0.000000 0.000001 -1.000000
vn 0.000000 0.000001 -1.000000
vn 0.000000 0.000001 -1.000000
vn -0.000000 -0.000001 1.000000
vn -0.000000 -0.000001 1.000000
vn -0.000000 -0.000001 1.000000
vn -0.000000 -0.000001 1.000000
vn -0.000000 -1.000000 -0.000001
vn -0.000000 -1.000000 -0.000001
vn -0.000000 -1.000000 -0.000001
vn -0.000000 -1.000000 -0.000001
vn 0.000000 1.000000 0.000001
vn 0.000000 1.000000 0.000001
vn 0.000000 1.000000 0.000001
vn 0.000000 1.000000 0.000001
vn -1.000000 0.000000 -0.000000
vn -1.000000 0.000000 -0.000000
vn -1.000000 0.000000 -0.000000
vn -1.000000 0.000000 -0.000000
vn 1.000000 -0.000000 0.000000
vn 1.000000 -0.000000 0.000000
vn 1.000000 -0.000000 0.000000
vn 1.000000 -0.000000 0.000000
s off
g Mesh polySurface16
usemtl mat21
f 36//97 35//98 34//99 33//100
f 40//101 39//102 38//103 37//104
f 34//105 40//106 37//107 33//108
f 38//109 39//110 35//111 36//112
f 37//113 38//114 36//115 33//116
f 35//117 39//118 40//119 34//120
g default
v -0.177500 -0.041667 -0.179166
v -0.127500 -0.041667 -0.179166
v -0.127500 0.008333 -0.179166
v -0.177500 0.008333 -0.179166
v -0.177500 -0.041667 0.140834
v -0.177500 0.008333 0.140834
v -0.127500 0.008333 0.140834
v -0.127500 -0.041667 0.140834
vn 0.000001 0.000001 -1.000000
vn 0.000001 0.000001 -1.000000
vn 0.000001 0.000001 -1.000000
vn 0.000001 0.000001 -1.000000
vn -0.000001 -0.000001 1.000000
vn -0.000001 -0.000001 1.000000
vn -0.000001 -0.000001 1.000000
vn -0.000001 -0.000001 1.000000
vn -0.000000 -1.000000 -0.000001
vn -0.000000 -1.000000 -0.000001
vn -0.000000 -1.000000 -0.000001
vn -0.000000 -1.000000 -0.000001
vn 0.000000 1.000000 0.000001
vn 0.000000 1.000000 0.000001
vn 0.000000 1.000000 0.000001
vn 0.000000 1.000000 0.000001
vn -1.000000 0.000000 -0.000001
vn -1.000000 0.000000 -0.000001
vn -1.000000 0.000000 -0.000001
vn -1.000000 0.000000 -0.000001
vn 1.000000 -0.000000 0.000001
vn 1.000000 -0.000000 0.000001
vn 1.000000 -0.000000 0.000001
vn 1.000000 -0.000000 0.000001
s off
g Mesh polySurface17
usemtl mat21
f 44//121 43//122 42//123 41//124
f 48//125 47//126 46//127 45//128
f 42//129 48//130 45//131 41//132
f 46//133 47//134 43//135 44//136
f 45//137 46//138 44//139 41//140
f 43//141 47//142 48//143 42//144
g default
v -0.237500 -0.041667 -0.179166
v -0.187500 -0.041667 -0.179166
v -0.187500 0.008333 -0.179166
v -0.237500 0.008333 -0.179166
v -0.237500 -0.041667 0.140834
v -0.237500 0.008333 0.140834
v -0.187500 0.008333 0.140834
v -0.187500 -0.041667 0.140834
vn 0.000001 0.000001 -1.000000
vn 0.000001 0.000001 -1.000000
vn 0.000001 0.000001 -1.000000
vn 0.000001 0.000001 -1.000000
vn -0.000001 -0.000001 1.000000
vn -0.000001 -0.000001 1.000000
vn -0.000001 -0.000001 1.000000
vn -0.000001 -0.000001 1.000000
vn -0.000000 -1.000000 -0.000001
vn -0.000000 -1.000000 -0.000001
vn -0.000000 -1.000000 -0.000001
vn -0.000000 -1.000000 -0.000001
vn 0.000000 1.000000 0.000001
vn 0.000000 1.000000 0.000001
vn 0.000000 1.000000 0.000001
vn 0.000000 1.000000 0.000001
vn -1.000000 0.000000 -0.000001
vn -1.000000 0.000000 -0.000001
vn -1.000000 0.000000 -0.000001
vn -1.000000 0.000000 -0.000001
vn 1.000000 -0.000000 0.000001
vn 1.000000 -0.000000 0.000001
vn 1.000000 -0.000000 0.000001
vn 1.000000 -0.000000 0.000001
s off
g Mesh polySurface18
usemtl mat21
f 52//145 51//146 50//147 49//148
f 56//149 55//150 54//151 53//152
f 50//153 56//154 53//155 49//156
f 54//157 55//158 51//159 52//160
f 53//161 54//162 52//163 49//164
f 51//165 55//166 56//167 50//168
g default
v 0.097500 0.003333 -0.094167
v 0.137500 0.003333 -0.094167
v 0.137500 0.043333 -0.084167
v 0.097500 0.043333 -0.084167
v 0.097500 0.003333 0.135833
v 0.097500 0.043333 0.135834
v 0.137500 0.043333 0.135834
v 0.137500 0.003333 0.135833
vn 0.000003 0.242536 -0.970142
vn 0.000003 0.242536 -0.970142
vn 0.000003 0.242536 -0.970142
vn 0.000003 0.242536 -0.970142
vn -0.000002 -0.000002 1.000000
vn -0.000002 -0.000002 1.000000
vn -0.000002 -0.000002 1.000000
vn -0.000002 -0.000002 1.000000
vn -0.000000 -1.000000 -0.000002
vn -0.000000 -1.000000 -0.000002
vn -0.000000 -1.000000 -0.000002
vn -0.000000 -1.000000 -0.000002
vn 0.000000 1.000000 0.000002
vn 0.000000 1.000000 0.000002
vn 0.000000 1.000000 0.000002
vn 0.000000 1.000000 0.000002
vn -1.000000 0.000000 -0.000002
vn -1.000000 0.000000 -0.000002
vn -1.000000 0.000000 -0.000002
vn -1.000000 0.000000 -0.000002
vn 1.000000 -0.000000 0.000002
vn 1.000000 -0.000000 0.000002
vn 1.000000 -0.000000 0.000002
vn 1.000000 -0.000000 0.000002
s off
g Mesh polySurface37
usemtl mat23
f 60//169 59//170 58//171 57//172
f 64//173 63//174 62//175 61//176
f 58//177 64//178 61//179 57//180
f 62//181 63//182 59//183 60//184
f 61//185 62//186 60//187 57//188
f 59//189 63//190 64//191 58//192
g default
v 0.037500 0.003333 -0.094167
v 0.077500 0.003333 -0.094167
v 0.077500 0.043333 -0.084167
v 0.037500 0.043333 -0.084167
v 0.037500 0.003333 0.135833
v 0.037500 0.043333 0.135834
v 0.077500 0.043333 0.135834
v 0.077500 0.003333 0.135833
vn 0.000003 0.242536 -0.970142
vn 0.000003 0.242536 -0.970142
vn 0.000003 0.242536 -0.970142
vn 0.000003 0.242536 -0.970142
vn -0.000001 -0.000002 1.000000
vn -0.000001 -0.000002 1.000000
vn -0.000001 -0.000002 1.000000
vn -0.000001 -0.000002 1.000000
vn -0.000000 -1.000000 -0.000002
vn -0.000000 -1.000000 -0.000002
vn -0.000000 -1.000000 -0.000002
vn -0.000000 -1.000000 -0.000002
vn 0.000000 1.000000 0.000002
vn 0.000000 1.000000 0.000002
vn 0.000000 1.000000 0.000002
vn 0.000000 1.000000 0.000002
vn -1.000000 0.000000 -0.000001
vn -1.000000 0.000000 -0.000001
vn -1.000000 0.000000 -0.000001
vn -1.000000 0.000000 -0.000001
vn 1.000000 -0.000000 0.000001
vn 1.000000 -0.000000 0.000001
vn 1.000000 -0.000000 0.000001
vn 1.000000 -0.000000 0.000001
s off
g Mesh polySurface38
usemtl mat23
f 68//193 67//194 66//195 65//196
f 72//197 71//198 70//199 69//200
f 66//201 72//202 69//203 65//204
f 70//205 71//206 67//207 68//208
f 69//209 70//210 68//211 65//212
f 67//213 71//214 72//215 66//216
g default
v -0.202500 0.003333 -0.084167
v -0.162500 0.003333 -0.084166
v -0.162500 0.043333 -0.074166
v -0.202500 0.043333 -0.074167
v -0.202500 0.003333 0.145834
v -0.202500 0.043333 0.145834
v -0.162500 0.043333 0.145834
v -0.162500 0.003333 0.145834
vn 0.000003 0.242536 -0.970142
vn 0.000003 0.242536 -0.970142
vn 0.000003 0.242536 -0.970142
vn 0.000003 0.242536 -0.970142
vn -0.000002 -0.000002 1.000000
vn -0.000002 -0.000002 1.000000
vn -0.000002 -0.000002 1.000000
vn -0.000002 -0.000002 1.000000
vn -0.000000 -1.000000 -0.000002
vn -0.000000 -1.000000 -0.000002
vn -0.000000 -1.000000 -0.000002
vn -0.000000 -1.000000 -0.000002
vn 0.000000 1.000000 0.000002
vn 0.000000 1.000000 0.000002
vn 0.000000 1.000000 0.000002
vn 0.000000 1.000000 0.000002
vn -1.000000 0.000000 -0.000002
vn -1.000000 0.000000 -0.000002
vn -1.000000 0.000000 -0.000002
vn -1.000000 0.000000 -0.000002
vn 1.000000 -0.000000 0.000002
vn 1.000000 -0.000000 0.000002
vn 1.000000 -0.000000 0.000002
vn 1.000000 -0.000000 0.000002
s off
g Mesh polySurface46
usemtl mat23
f 76//217 75//218 74//219 73//220
f 80//221 79//222 78//223 77//224
f 74//225 80//226 77//227 73//228
f 78//229 79//230 75//231 76//232
f 77//233 78//234 76//235 73//236
f 75//237 79//238 80//239 74//240
g default
v -0.142500 0.003333 -0.084167
v -0.102500 0.003333 -0.084166
v -0.102500 0.043333 -0.074166
v -0.142500 0.043333 -0.074166
v -0.142500 0.003333 0.145834
v -0.142500 0.043333 0.145834
v -0.102500 0.043333 0.145834
v -0.102500 0.003333 0.145834
vn 0.000003 0.242536 -0.970142
vn 0.000003 0.242536 -0.970142
vn 0.000003 0.242536 -0.970142
vn 0.000003 0.242536 -0.970142
vn -0.000002 -0.000002 1.000000
vn -0.000002 -0.000002 1.000000
vn -0.000002 -0.000002 1.000000
vn -0.000002 -0.000002 1.000000
vn -0.000000 -1.000000 -0.000002
vn -0.000000 -1.000000 -0.000002
vn -0.000000 -1.000000 -0.000002
vn -0.000000 -1.000000 -0.000002
vn 0.000000 1.000000 0.000002
vn 0.000000 1.000000 0.000002
vn 0.000000 1.000000 0.000002
vn 0.000000 1.000000 0.000002
vn -1.000000 0.000000 -0.000002
vn -1.000000 0.000000 -0.000002
vn -1.000000 0.000000 -0.000002
vn -1.000000 0.000000 -0.000002
vn 1.000000 -0.000000 0.000002
vn 1.000000 -0.000000 0.000002
vn 1.000000 -0.000000 0.000002
vn 1.000000 -0.000000 0.000002
s off
g Mesh polySurface47
usemtl mat23
f 84//241 83//242 82//243 81//244
f 88//245 87//246 86//247 85//248
f 82//249 88//250 85//251 81//252
f 86//253 87//254 83//255 84//256
f 85//257 86//258 84//259 81//260
f 83//261 87//262 88//263 82//264
g default
v -0.082500 0.003333 -0.084167
v -0.042500 0.003333 -0.084166
v -0.042500 0.043333 -0.074166
v -0.082500 0.043333 -0.074166
v -0.082500 0.003333 0.145834
v -0.082500 0.043333 0.145834
v -0.042500 0.043333 0.145834
v -0.042500 0.003333 0.145834
vn 0.000003 0.242536 -0.970142
vn 0.000003 0.242536 -0.970142
vn 0.000003 0.242536 -0.970142
vn 0.000003 0.242536 -0.970142
vn -0.000002 -0.000002 1.000000
vn -0.000002 -0.000002 1.000000
vn -0.000002 -0.000002 1.000000
vn -0.000002 -0.000002 1.000000
vn -0.000000 -1.000000 -0.000002
vn -0.000000 -1.000000 -0.000002
vn -0.000000 -1.000000 -0.000002
vn -0.000000 -1.000000 -0.000002
vn 0.000000 1.000000 0.000002
vn 0.000000 1.000000 0.000002
vn 0.000000 1.000000 0.000002
vn 0.000000 1.000000 0.000002
vn -1.000000 0.000000 -0.000002
vn -1.000000 0.000000 -0.000002
vn -1.000000 0.000000 -0.000002
vn -1.000000 0.000000 -0.000002
vn 1.000000 -0.000000 0.000002
vn 1.000000 -0.000000 0.000002
vn 1.000000 -0.000000 0.000002
vn 1.000000 -0.000000 0.000002
s off
g Mesh polySurface48
usemtl mat23
f 92//265 91//266 90//267 89//268
f 96//269 95//270 94//271 93//272
f 90//273 96//274 93//275 89//276
f 94//277 95//278 91//279 92//280
f 93//281 94//282 92//283 89//284
f 91//285 95//286 96//287 90//288
